<svg xmlns="http://www.w3.org/2000/svg" version="1.1" viewBox="-5.0 -10.0 110.0 135.0">
 <path d="m65.273 31.609h-30.547c-1.7227 0-3.1172 1.3945-3.1172 3.1172v30.543c0 1.7227 1.3945 3.1172 3.1172 3.1172h30.543c1.7227 0 3.1172-1.3945 3.1172-3.1172l0.003906-30.543c0-1.7188-1.3984-3.1172-3.1172-3.1172zm1.0391 33.664c0 0.57422-0.46484 1.0391-1.0391 1.0391h-30.547c-0.57422 0-1.0391-0.46484-1.0391-1.0391v-30.547c0-0.57422 0.46484-1.0391 1.0391-1.0391h30.543c0.57422 0 1.0391 0.46484 1.0391 1.0391zm26.367-5.0625c-0.90625 0-1.6836 0.52344-2.0664 1.2812h-11.52v-6.2773h4.3281c0.38281 0.75781 1.1602 1.2812 2.0664 1.2812 1.2812 0 2.3203-1.0391 2.3203-2.3203s-1.0391-2.3203-2.3203-2.3203c-0.90625 0-1.6836 0.52344-2.0664 1.2812h-4.3281v-6.2734h4.3281c0.38281 0.75781 1.1602 1.2812 2.0664 1.2812 1.2812 0 2.3203-1.0391 2.3203-2.3203s-1.0391-2.3203-2.3203-2.3203c-0.90625 0-1.6836 0.52344-2.0664 1.2812h-4.3281v-6.2773h11.52c0.38281 0.75781 1.1602 1.2812 2.0664 1.2812 1.2812 0 2.3203-1.0391 2.3203-2.3203s-1.0391-2.3203-2.3203-2.3203c-0.90625 0-1.6836 0.52344-2.0664 1.2812h-11.52v-6.2773h7.3633c0.38281 0.75781 1.1602 1.2812 2.0664 1.2812 1.2812 0 2.3203-1.0391 2.3203-2.3203s-1.0391-2.3203-2.3203-2.3203c-0.90625 0-1.6836 0.52344-2.0664 1.2812h-7.3633v-0.28516c0-3.8008-3.082-6.8867-6.8867-6.8867h-0.28516v-7.3633c0.75781-0.38281 1.2812-1.1602 1.2812-2.0664 0-1.2812-1.0391-2.3203-2.3203-2.3203s-2.3203 1.0391-2.3203 2.3203c0 0.90625 0.52344 1.6836 1.2812 2.0664v7.3633h-6.2734v-11.516c0.75781-0.38281 1.2812-1.1602 1.2812-2.0664 0-1.2812-1.0391-2.3203-2.3203-2.3203s-2.3203 1.0391-2.3203 2.3203c0 0.90625 0.52344 1.6836 1.2812 2.0664v11.52h-6.2773v-4.3281c0.75781-0.38281 1.2812-1.1602 1.2812-2.0664 0-1.2812-1.0391-2.3203-2.3203-2.3203s-2.3203 1.0391-2.3203 2.3203c0 0.90625 0.52344 1.6836 1.2812 2.0664v4.3281h-6.2734v-4.3281c0.75781-0.38281 1.2812-1.1602 1.2812-2.0664 0-1.2812-1.0391-2.3203-2.3203-2.3203s-2.3203 1.0391-2.3203 2.3203c0 0.90625 0.52344 1.6836 1.2812 2.0664v4.3281h-6.2773v-11.52c0.75781-0.38281 1.2812-1.1602 1.2812-2.0664 0-1.2812-1.0391-2.3203-2.3203-2.3203s-2.3203 1.0391-2.3203 2.3203c0 0.90625 0.52344 1.6836 1.2812 2.0664v11.52h-6.2773v-7.3633c0.75781-0.38281 1.2812-1.1602 1.2812-2.0664 0-1.2812-1.0391-2.3203-2.3203-2.3203s-2.3203 1.0391-2.3203 2.3203c0 0.90625 0.52344 1.6836 1.2812 2.0664v7.3633h-0.28516c-3.8008 0-6.8867 3.082-6.8867 6.8867v0.28516h-7.3633c-0.38281-0.75781-1.1602-1.2812-2.0664-1.2812-1.2812 0-2.3203 1.0391-2.3203 2.3203s1.0391 2.3203 2.3203 2.3203c0.90625 0 1.6836-0.52344 2.0664-1.2812h7.3633v6.2773l-11.516-0.003906c-0.38281-0.75781-1.1602-1.2812-2.0664-1.2812-1.2812 0-2.3203 1.0391-2.3203 2.3203s1.0391 2.3203 2.3203 2.3203c0.90625 0 1.6836-0.52344 2.0664-1.2812h11.52v6.2773h-4.3281c-0.38281-0.75781-1.1602-1.2812-2.0664-1.2812-1.2812 0-2.3203 1.0391-2.3203 2.3203s1.0391 2.3203 2.3203 2.3203c0.90625 0 1.6836-0.52344 2.0664-1.2812h4.3281v6.2773h-4.3281c-0.38281-0.75781-1.1602-1.2812-2.0664-1.2812-1.2812 0-2.3203 1.0391-2.3203 2.3203s1.0391 2.3203 2.3203 2.3203c0.90625 0 1.6836-0.52344 2.0664-1.2812h4.3281v6.2773l-11.52-0.003906c-0.38281-0.75781-1.1602-1.2812-2.0664-1.2812-1.2812 0-2.3203 1.0391-2.3203 2.3203s1.0391 2.3203 2.3203 2.3203c0.90625 0 1.6836-0.52344 2.0664-1.2812h11.52v6.2734h-7.3633c-0.38281-0.75781-1.1602-1.2812-2.0664-1.2812-1.2812 0-2.3203 1.0391-2.3203 2.3203s1.0391 2.3203 2.3203 2.3203c0.90625 0 1.6836-0.52344 2.0664-1.2812h7.3633v0.28516c0 3.8008 3.082 6.8867 6.8867 6.8867h0.28516v7.3633c-0.75781 0.38281-1.2812 1.1602-1.2812 2.0664 0 1.2812 1.0391 2.3203 2.3203 2.3203s2.3203-1.0391 2.3203-2.3203c0-0.90625-0.52344-1.6836-1.2812-2.0664v-7.3633h6.2773v11.52c-0.75781 0.38281-1.2812 1.1602-1.2812 2.0664-0.003906 1.2812 1.0352 2.3203 2.3164 2.3203s2.3203-1.0391 2.3203-2.3203c0-0.90625-0.52344-1.6836-1.2812-2.0664v-11.52h6.2773v4.3281c-0.75781 0.38281-1.2812 1.1602-1.2812 2.0664 0 1.2812 1.0391 2.3203 2.3203 2.3203s2.3203-1.0391 2.3203-2.3203c0-0.90625-0.52344-1.6836-1.2812-2.0664v-4.3281h6.2773l-0.003906 4.3281c-0.75781 0.38281-1.2812 1.1602-1.2812 2.0664 0 1.2812 1.0391 2.3203 2.3203 2.3203s2.3203-1.0391 2.3203-2.3203c0-0.90625-0.52344-1.6836-1.2812-2.0664v-4.3281h6.2773v11.52c-0.75781 0.38281-1.2812 1.1602-1.2812 2.0664 0 1.2812 1.0391 2.3203 2.3203 2.3203s2.3203-1.0391 2.3203-2.3203c0-0.90625-0.52344-1.6836-1.2812-2.0664v-11.52h6.2734v7.3633c-0.75781 0.38281-1.2812 1.1602-1.2812 2.0664 0 1.2812 1.0391 2.3203 2.3203 2.3203s2.3203-1.0391 2.3203-2.3203c0-0.90625-0.52344-1.6836-1.2812-2.0664v-7.3633h0.28516c3.8008 0 6.8867-3.082 6.8867-6.8867v-0.28516h7.3633c0.38281 0.75781 1.1602 1.2812 2.0664 1.2812 1.2812 0 2.3203-1.0391 2.3203-2.3203s-1.0391-2.3203-2.3203-2.3203c-0.90625 0-1.6836 0.52344-2.0664 1.2812h-7.3633v-6.2734h11.52c0.38281 0.75781 1.1602 1.2812 2.0664 1.2812 1.2812 0 2.3203-1.0391 2.3203-2.3203s-1.0391-2.3203-2.3203-2.3203zm-15.664 11.996c0 2.6523-2.1562 4.8086-4.8086 4.8086h-44.414c-2.6523 0-4.8086-2.1562-4.8086-4.8086v-44.414c0-2.6523 2.1562-4.8086 4.8086-4.8086h44.418c2.6523 0 4.8086 2.1562 4.8086 4.8086zm-31.891-37.457c-1.6406 0-3.1523 0.83203-4.043 2.2227-0.26172 0.41016-0.45312 0.84766-0.57422 1.3125-0.29687 0.019532-0.58984 0.066406-0.86719 0.14062-2.1133 0.54688-3.5898 2.4492-3.5898 4.6328 0 1.1289 0.40625 2.2266 1.1211 3.0781-0.71875 0.76953-1.125 1.7773-1.125 2.8438 0 1.2852 0.57812 2.4688 1.5703 3.2539-0.39453 0.67969-0.60938 1.4883-0.60938 2.3281 0 1.8516 1.0547 3.4883 2.5547 3.9922-0.29688 1.2305-0.007812 2.4453 0.8125 3.2656 0.59375 0.59375 1.418 0.92188 2.3164 0.92188 0.046875 0 0.097656 0 0.14453-0.003907 0.28125 0.87891 0.88281 1.6211 1.707 2.0703 0.52734 0.28906 1.1328 0.44531 1.7461 0.44531 0.61719 0 1.2188-0.15234 1.7422-0.44531 0.4375-0.24219 0.8125-0.5625 1.1094-0.94531l0.10547-0.13672v-26.633l-0.078125-0.12109c-0.88281-1.3945-2.3945-2.2227-4.043-2.2227zm2.6172 14.113c-0.25-0.070312-0.53516-0.11719-0.84375-0.11719-0.66406 0-1.2969 0.21875-1.8828 0.64844l-0.30859 0.23047c-0.51953 0.38672-0.89453 0.66797-1.1367 0.66797-0.23047 0-0.57422-0.24609-1.1523-0.82812-0.14062-0.14062-0.33203-0.22266-0.53125-0.22266-0.20312 0-0.39062 0.078124-0.53125 0.22266-0.29297 0.29297-0.29297 0.76953 0 1.0664 0.89453 0.89453 1.5625 1.2734 2.2344 1.2734 0.71484 0 1.2891-0.42969 2.0195-0.97266l0.30469-0.22656c0.32422-0.23828 0.66016-0.35938 1.0039-0.35938 0.35156 0 0.64844 0.125 0.82812 0.22266v12.699c-0.12891 0.12109-0.27734 0.22656-0.4375 0.32031-0.30078 0.16797-0.65234 0.25391-1.0117 0.25391s-0.71094-0.089844-1.0195-0.25781c-0.5625-0.30469-0.94922-0.84375-1.0625-1.4727l-0.17578-0.96484-0.96875 0.15234c-0.125 0.019531-0.25 0.03125-0.37109 0.03125-0.50391 0-0.9375-0.16797-1.2539-0.48047-0.51172-0.51562-0.625-1.3594-0.28516-2.2383l0.046875-0.097657c0.042969-0.082031 0.089844-0.16016 0.18359-0.3125l0.0625-0.09375 0.16406-0.22656 0.097656-0.12109 0.10938-0.12109c0.035156-0.039062 0.074219-0.078124 0.11719-0.11719 0.039063-0.035156 0.078125-0.070313 0.11719-0.10156 0.039062-0.03125 0.082031-0.0625 0.125-0.09375 0.039062-0.027343 0.082031-0.050781 0.12109-0.074218 0.039062-0.019532 0.082031-0.039063 0.125-0.054688 0.035156-0.015625 0.074218-0.023437 0.10156-0.03125 0.035156-0.003906 0.074219-0.011718 0.125-0.011718 0.38672 0 0.85156 0.43359 1.3086 1.2148 0.13281 0.23047 0.38281 0.375 0.65234 0.375 0.13281 0 0.26562-0.035156 0.37891-0.10156 0.17578-0.10156 0.29688-0.26562 0.34766-0.46094 0.050781-0.19531 0.023438-0.39844-0.078125-0.57031-0.76172-1.3047-1.6445-1.9648-2.6523-1.9648-1.1758 0.023437-2.0195 1.0312-2.4141 1.6172-0.03125-0.007812-0.070313-0.019531-0.10938-0.035156-0.92578-0.29688-1.5703-1.3594-1.5703-2.5781 0-0.69922 0.21094-1.3516 0.58984-1.8438l0.6875-0.88672-0.95703-0.58203c-0.80078-0.48828-1.2773-1.3359-1.2773-2.2656 0-0.79297 0.35156-1.543 0.96484-2.0469l0.14844-0.12109c0.61328-0.17578 1.2539-0.29297 1.6914-0.3125-0.13281 0.19531-0.37109 0.49219-0.80469 0.92578-0.29297 0.29297-0.29297 0.76953 0 1.0625 0.14062 0.14062 0.33203 0.21875 0.53125 0.21875 0.20312 0 0.39062-0.078125 0.53125-0.21875 0.91797-0.91797 1.7812-1.9766 1.2422-2.8711-0.25391-0.41406-0.74609-0.625-1.4727-0.625-0.63672 0-1.3633 0.15625-1.9414 0.3125-0.57812-0.60938-0.89453-1.4023-0.89453-2.2461 0-1.4961 1.0117-2.8008 2.4609-3.1758 0.14062-0.039062 0.28516-0.0625 0.44141-0.082031 0.078124 0.37109 0.25 0.79688 0.58984 1.1875 0.57422 0.66016 1.4531 1 2.6953 1.0195 1.0625 0 1.875-0.32031 2.4219-0.94922 0.85547-0.98828 0.64844-2.3047 0.64062-2.3555-0.058594-0.36328-0.37891-0.63672-0.74609-0.63672l-0.11328 0.007812c-0.41016 0.0625-0.69141 0.44531-0.62891 0.85547 0 0.007813 0.089844 0.70703-0.28906 1.1406-0.24609 0.28516-0.67188 0.42578-1.3398 0.42578h-0.003906c-0.71484-0.011719-1.2188-0.17969-1.5234-0.52734-0.042968-0.054688-0.085937-0.11328-0.11719-0.17578s-0.058594-0.125-0.078125-0.1875c-0.019531-0.058594-0.035156-0.12109-0.046875-0.18359-0.007813-0.050781-0.015625-0.097656-0.019531-0.15234l-0.003906-0.10938c0-0.046875 0.003906-0.09375 0.007812-0.13672l0.023438-0.21484c0.082031-0.375 0.22266-0.72266 0.42187-1.0312 0.60938-0.95703 1.6484-1.5273 2.7734-1.5273 1.0312 0 1.9961 0.48437 2.6172 1.3008zm16.207-5.8047c0-2.1836-1.4766-4.0898-3.5859-4.6328-0.26953-0.070312-0.55469-0.11719-0.86719-0.14062-0.12109-0.46484-0.31641-0.90625-0.57812-1.3164-0.88672-1.3906-2.3984-2.2227-4.043-2.2227-1.6484 0-3.1602 0.83203-4.043 2.2227l-0.078125 0.12109v26.637l0.10547 0.13672c0.29688 0.38281 0.66797 0.70312 1.1094 0.94531 0.52344 0.29297 1.125 0.44531 1.7422 0.44531 0.61328 0 1.2148-0.15234 1.7422-0.44531 0.82422-0.44922 1.4297-1.1914 1.707-2.0703 0.046875 0.003907 0.097656 0.003907 0.14453 0.003907 0.89844 0 1.7227-0.32813 2.3203-0.92578 0.81641-0.82031 1.1055-2.0352 0.80859-3.2656 1.5078-0.51172 2.5547-2.1445 2.5547-3.9922 0-0.83984-0.21484-1.6484-0.60938-2.3281 0.99219-0.78516 1.5703-1.9688 1.5703-3.2539 0-1.0664-0.40625-2.0781-1.125-2.8438 0.71875-0.85547 1.125-1.9492 1.125-3.0742zm-2.7852 8.1875-0.95703 0.58203 0.68359 0.89062c0.37891 0.48828 0.58984 1.1445 0.58984 1.8438 0 1.2227-0.64453 2.2812-1.5859 2.582-0.03125 0.011719-0.066406 0.023438-0.09375 0.03125-0.39453-0.58984-1.2383-1.5938-2.4336-1.6172-0.98828 0-1.8711 0.66016-2.6328 1.9609-0.10156 0.17188-0.12891 0.375-0.078125 0.57031 0.050781 0.19531 0.17578 0.35938 0.34766 0.46094 0.11719 0.066407 0.24609 0.10156 0.38281 0.10156 0.26562 0 0.51562-0.14453 0.64844-0.375 0.45703-0.78516 0.92188-1.2188 1.3242-1.2188 0.039063 0 0.074219 0.007812 0.10156 0.011718 0.039062 0.007813 0.074218 0.019532 0.11328 0.03125 0.042969 0.015626 0.085937 0.035157 0.12109 0.050782 0.042969 0.023437 0.085938 0.050781 0.125 0.074218 0.042969 0.027344 0.082032 0.058594 0.125 0.09375 0.042969 0.03125 0.082032 0.066407 0.12109 0.10547 0.039063 0.039063 0.078125 0.074219 0.11328 0.10938l0.10937 0.125 0.19141 0.24219 0.074219 0.10156 0.10937 0.17188c0.046876 0.078125 0.09375 0.15625 0.13672 0.23438l0.066407 0.13281c0.32422 0.84375 0.21094 1.6875-0.30078 2.2031-0.31641 0.31641-0.75 0.48047-1.2539 0.48047-0.12109 0-0.24609-0.007812-0.37109-0.03125l-0.96875-0.15234-0.17578 0.96484c-0.11328 0.62891-0.5 1.1641-1.0664 1.4727-0.30469 0.16797-0.65625 0.25781-1.0156 0.25781s-0.71094-0.089843-1.0117-0.25391c-0.16406-0.089844-0.30859-0.19922-0.4375-0.32031l-0.007813-12.691c0.17969-0.097656 0.47656-0.22266 0.82813-0.22266 0.34375 0 0.68359 0.12109 1.0039 0.35547l0.30859 0.22656c0.73047 0.54297 1.3047 0.97266 2.0195 0.97266 0.67188 0 1.3398-0.38281 2.2344-1.2734 0.29297-0.29297 0.29297-0.76953 0-1.0625-0.14062-0.14453-0.33203-0.22266-0.53125-0.22266-0.20312 0-0.39062 0.078125-0.53125 0.22266-0.57031 0.57031-0.92578 0.82812-1.1523 0.82812-0.24219 0-0.61719-0.28125-1.1367-0.66797l-0.3125-0.23047c-0.58203-0.42969-1.2188-0.64844-1.8828-0.64844-0.30859 0-0.59375 0.046875-0.84375 0.11719l-0.003907-11.312c0.61719-0.81641 1.5859-1.2969 2.6133-1.2969 1.125 0 2.1641 0.57031 2.7734 1.5273 0.19922 0.3125 0.33984 0.66016 0.41406 0.99219l0.027344 0.24609 0.007812 0.14062c0 0.035157 0 0.070313-0.003906 0.10938-0.003906 0.050781-0.007813 0.10156-0.019532 0.15625-0.011718 0.058593-0.027343 0.12109-0.046874 0.17969-0.019532 0.0625-0.046876 0.125-0.078126 0.1875s-0.070312 0.12109-0.13672 0.19922c-0.28125 0.32422-0.78906 0.49219-1.5781 0.50391-0.59375 0-1.0195-0.14453-1.2695-0.42969-0.37891-0.4375-0.28906-1.1328-0.28906-1.1406 0.0625-0.41016-0.22266-0.79297-0.62891-0.85547l-0.11328-0.007813c-0.36719 0-0.6875 0.27344-0.74219 0.62891-0.007812 0.054688-0.21875 1.375 0.63672 2.3594 0.54688 0.62891 1.3594 0.94922 2.5039 0.94922h0.003906c1.1562-0.019531 2.0352-0.36328 2.6133-1.0195 0.33984-0.38672 0.50781-0.8125 0.58594-1.1875 0.15234 0.015625 0.30078 0.042969 0.44531 0.082031 1.4492 0.375 2.4609 1.6797 2.4609 3.1758 0 0.83984-0.3125 1.6289-0.89453 2.2461-0.57422-0.15625-1.3047-0.3125-1.9375-0.3125-0.72656 0-1.2227 0.21094-1.4727 0.625-0.54297 0.89453 0.32422 1.9531 1.2422 2.8711 0.14062 0.14062 0.33203 0.21875 0.53125 0.21875s0.39062-0.078125 0.53125-0.21875c0.29297-0.29297 0.29297-0.76953 0-1.0664-0.42969-0.42969-0.66797-0.73047-0.80078-0.92188 0.43359 0.015625 1.0742 0.13281 1.6875 0.3125l0.14844 0.12109c0.61328 0.50781 0.96484 1.2539 0.96484 2.0469 0.003906 0.93359-0.47266 1.7812-1.2734 2.2695z"/>
<text x="0.0" y="117.5" font-size="5.0" font-weight="bold" font-family="Arbeit Regular, Helvetica, Arial-Unicode, Arial, Sans-serif" fill="#000000">Created by huijae Jang</text><text x="0.0" y="122.5" font-size="5.0" font-weight="bold" font-family="Arbeit Regular, Helvetica, Arial-Unicode, Arial, Sans-serif" fill="#000000">from Noun Project</text></svg>